<svg aria-hidden="true" style="position: absolute; width: 0; height: 0; overflow: hidden;" version="1.1" xmlns="http://www.w3.org/2000/svg" xmlns:xlink="http://www.w3.org/1999/xlink">
<defs>
<symbol id="icon-basket" viewBox="0 0 34 32">
<path stroke-linejoin="round" stroke-linecap="round" stroke-miterlimit="4" stroke-width="2.4" d="M25.6 24h-16.8l-3.2-22.4h-4"></path>
<path stroke-linejoin="round" stroke-linecap="round" stroke-miterlimit="4" stroke-width="2.4" d="M6.058 4.8h25.943l-4.8 14.4h-19.086"></path>
<path stroke-linejoin="round" stroke-linecap="round" stroke-miterlimit="4" stroke-width="2.4" d="M12.8 30.4c1.767 0 3.2-1.433 3.2-3.2s-1.433-3.2-3.2-3.2c-1.767 0-3.2 1.433-3.2 3.2s1.433 3.2 3.2 3.2z"></path>
<path stroke-linejoin="round" stroke-linecap="round" stroke-miterlimit="4" stroke-width="2.4" d="M25.6 30.4c1.767 0 3.2-1.433 3.2-3.2s-1.433-3.2-3.2-3.2c-1.767 0-3.2 1.433-3.2 3.2s1.433 3.2 3.2 3.2z"></path>
</symbol>
<symbol id="icon-burger" viewBox="0 0 51 32">
<path stroke-linejoin="miter" stroke-linecap="butt" stroke-miterlimit="4" stroke-width="2.4" d="M0 2.002h51.208M12.802 16.404h38.406M12.802 30.806h38.406"></path>
</symbol>
<symbol id="icon-circle" viewBox="0 0 28 32">
<path d="M28.444 16c0 7.855-6.367 14.222-14.222 14.222s-14.222-6.367-14.222-14.222c0-7.855 6.367-14.222 14.222-14.222s14.222 6.367 14.222 14.222z"></path>
</symbol>
<symbol id="icon-like" viewBox="0 0 36 32">
<path stroke-linejoin="round" stroke-linecap="round" stroke-miterlimit="4" stroke-width="2.6667" d="M4.145 16.084l13.633 14.138 13.633-14.138c1.516-1.572 2.367-3.703 2.367-5.926 0-4.628-3.618-8.381-8.081-8.381-2.143 0-4.199 0.883-5.714 2.455l-2.204 2.286-2.204-2.286c-1.516-1.572-3.571-2.455-5.714-2.455-4.463 0-8.081 3.752-8.081 8.381 0 2.223 0.851 4.354 2.367 5.926z"></path>
</symbol>
<symbol id="icon-logo" viewBox="0 0 61 32">
<path fill="none" stroke="#fff" style="stroke: var(--color1, #fff)" stroke-linejoin="miter" stroke-linecap="butt" stroke-miterlimit="10" stroke-width="0.6884" d="M14.671 14.071c1.503 0 2.721-1.194 2.721-2.667s-1.218-2.667-2.721-2.667-2.721 1.194-2.721 2.667c0 1.473 1.218 2.667 2.721 2.667z"></path>
<path fill="none" stroke="#fff" style="stroke: var(--color1, #fff)" stroke-linejoin="miter" stroke-linecap="butt" stroke-miterlimit="10" stroke-width="0.6884" d="M16.847 5.964c1.503 0 2.721-1.194 2.721-2.667s-1.218-2.667-2.721-2.667c-1.503 0-2.721 1.194-2.721 2.667s1.218 2.667 2.721 2.667z"></path>
<path fill="#fff" style="fill: var(--color1, #fff)" d="M16.953 3.591c0.022-0.001 0.043-0.007 0.062-0.017s0.036-0.024 0.049-0.040c0.267-0.352-0.072-0.457-0.072-0.457l-5.258 0.402c-0.025 0.003-0.051 0-0.074-0.008s-0.045-0.022-0.062-0.040c-0.017-0.018-0.029-0.040-0.035-0.063s-0.006-0.048-0-0.072c0.093-0.419 0.254-0.821 0.477-1.192 0.027-0.047 0.067-0.087 0.115-0.114s0.104-0.042 0.16-0.042c0.056 0 0.112 0.014 0.16 0.042s0.088 0.067 0.115 0.114l-0.002 0.413c-0.002 0.028 0.005 0.056 0.021 0.080 0.030 0.043 0.070 0.079 0.117 0.105 0.022 0.011 0.047 0.017 0.072 0.017s0.050-0.006 0.072-0.017 0.041-0.028 0.055-0.047c0.014-0.020 0.023-0.043 0.026-0.067 0.041-0.328 0.051-1.062-0.665-1.092-0.967-0.046-1.219 1.703-1.279 2.347-0.003 0.030 0.001 0.061 0.011 0.090s0.027 0.055 0.049 0.077c0.022 0.022 0.048 0.040 0.078 0.051s0.061 0.017 0.093 0.016h0.789c0.022 0 0.043 0.005 0.063 0.013s0.038 0.021 0.052 0.036c0.014 0.015 0.025 0.034 0.032 0.053s0.009 0.041 0.007 0.061l-0.369 3.793c-0.003 0.036-0.019 0.069-0.046 0.094s-0.062 0.039-0.1 0.041l-1.104 0.062c-0.023 0.001-0.047-0.003-0.069-0.012s-0.041-0.022-0.056-0.039c-0.016-0.017-0.027-0.037-0.033-0.058s-0.007-0.044-0.003-0.066c0.038-0.182 0.061-0.367 0.069-0.552 0-0.187-0.171-0.256-0.261-0.308-0.012-0.008-0.026-0.013-0.041-0.014s-0.029 0.001-0.043 0.006c-0.014 0.005-0.025 0.014-0.035 0.025s-0.016 0.024-0.019 0.037l-0.437 1.998c-0.006 0.023-0.005 0.048 0.002 0.071s0.019 0.044 0.036 0.062c0.051 0.050 0.12 0.081 0.194 0.087 0.035 0.003 0.069-0.005 0.099-0.023s0.051-0.045 0.063-0.077l0.18-0.492c0.009-0.027 0.027-0.051 0.050-0.068s0.051-0.029 0.081-0.032l1.313-0.125c0.024-0.002 0.048 0.001 0.071 0.009s0.043 0.021 0.059 0.039l2.812 2.95c0.014 0.015 0.032 0.028 0.052 0.036s0.041 0.013 0.063 0.013h0.106c0.033 0 0.064-0.010 0.091-0.028s0.046-0.044 0.056-0.074l1.334-3.779c0.009-0.024 0.010-0.050 0.006-0.075s-0.016-0.048-0.033-0.068l-3.086-3.54c-0.014-0.015-0.025-0.033-0.031-0.053s-0.008-0.040-0.005-0.060v-0.034c0.004-0.034 0.021-0.066 0.047-0.089s0.060-0.038 0.095-0.040l3.665-0.264zM15.566 8.48l-0.857 2.247c-0.009 0.024-0.025 0.045-0.045 0.062s-0.045 0.028-0.071 0.033c-0.026 0.005-0.053 0.003-0.079-0.004s-0.048-0.022-0.066-0.040l-1.898-1.967c-0.019-0.020-0.032-0.044-0.037-0.071s-0.004-0.054 0.006-0.079c0.009-0.025 0.026-0.048 0.047-0.065s0.048-0.029 0.075-0.033l2.743-0.423c0.021-0.002 0.043 0 0.064 0.007s0.039 0.017 0.056 0.030c0.016 0.014 0.029 0.030 0.038 0.049s0.014 0.039 0.014 0.060v0.143c0.007 0.017 0.011 0.034 0.010 0.052zM15.299 7.581l-2.803 0.423c-0.023 0.002-0.046-0-0.068-0.008s-0.042-0.019-0.058-0.035-0.029-0.035-0.037-0.056c-0.008-0.021-0.011-0.043-0.008-0.065l0.343-3.114c0.005-0.026 0.018-0.050 0.037-0.070s0.043-0.035 0.069-0.043c0.027-0.008 0.055-0.009 0.082-0.003s0.052 0.019 0.072 0.037l2.464 2.69c0.018 0.020 0.030 0.044 0.035 0.070s0.003 0.053-0.007 0.078c-0.009 0.025-0.025 0.047-0.047 0.064s-0.047 0.028-0.074 0.032z"></path>
<path fill="#f57520" style="fill: var(--color2, #f57520)" d="M46.15 26.822l1.181-3.003-2.68-1.872h3.427l1.096-2.975 0.893 3.029h3.283l-2.765 1.764 0.837 3.057-2.421-1.736z"></path>
<path fill="#fff" style="fill: var(--color1, #fff)" d="M32.018 31.841h3.44l9.568-31.688h-3.44l-9.568 31.688z"></path>
<path fill="#fff" style="fill: var(--color1, #fff)" d="M37.085 31.841l1.063-3.169 12.28 0c0.315 0 0.615 0.001 0.903-0.006 1.611-0.083 3.083-0.925 4.22-2.032 1.178-1.147 1.838-2.691 1.838-4.299 0-1.619-0.668-3.172-1.859-4.321-0.608-0.586-1.319-0.863-2.094-0.994-0.5-0.064-1.003-0.102-1.496-0.117-0.217-0.004-0.437-0.006-0.659-0.007-0.072-0-0.143-0.001-0.215-0.002h-9.666l0.938-2.87h4.753c0.848 0 1.35 0.009 1.787 0.016h0c0.723 0.012 1.266 0.021 2.904-0.016 0.861-0.020 1.427-0.046 1.93-0.176 0.814-0.291 1.56-0.751 2.18-1.355 1.103-1.075 1.721-2.521 1.722-4.029 0-1.517-0.606-3.169-1.722-4.246s-2.623-1.243-4.206-1.256h-5.907l0.688-2.81h4.253c0.34 0 0.613-0.003 0.849-0.006 0.807-0.009 1.194-0.013 2.403 0.125 0.168 0.019 0.321 0.049 0.463 0.088 1.424 0.239 2.735 0.738 3.8 1.766 1.726 1.666 2.667 3.991 2.678 6.338-0.011 2.332-0.972 4.568-2.678 6.232-0.218 0.213-0.447 0.398-0.686 0.56 0.161 0.118 0.318 0.249 0.47 0.396 1.843 1.778 2.882 4.178 2.894 6.683-0.011 2.489-1.037 4.875-2.859 6.65-1.169 1.139-2.607 1.945-4.175 2.39-0.881 0.295-1.886 0.465-3.034 0.465h-13.758z"></path>
<path fill="#fff" style="fill: var(--color1, #fff)" d="M0.625 0.153h3.377l8.067 26.725-1.251 4.962-10.194-31.688z"></path>
<path fill="#fff" style="fill: var(--color1, #fff)" d="M12.132 31.84h3.314l7.004-25.948 8.005 25.948 1.626-5.082-8.38-26.606h-3.127l-8.443 31.688z"></path>
</symbol>
<symbol id="icon-persona" viewBox="0 0 29 32">
<path stroke-linejoin="round" stroke-linecap="round" stroke-miterlimit="4" stroke-width="2.4" d="M20.8 20.8h-12.8c-3.535 0-6.4 2.865-6.4 6.4v3.2h25.6v-3.2c0-3.535-2.865-6.4-6.4-6.4z"></path>
<path stroke-linejoin="round" stroke-linecap="round" stroke-miterlimit="4" stroke-width="2.4" d="M14.4 14.4c3.535 0 6.4-2.865 6.4-6.4s-2.865-6.4-6.4-6.4c-3.535 0-6.4 2.865-6.4 6.4s2.865 6.4 6.4 6.4z"></path>
</symbol>
<symbol id="icon-search" viewBox="0 0 32 32">
<path stroke-linejoin="round" stroke-linecap="round" stroke-miterlimit="4" stroke-width="2.5263" d="M26.947 14.316c0 6.976-5.655 12.632-12.632 12.632s-12.632-5.655-12.632-12.632c0-6.976 5.655-12.632 12.632-12.632s12.632 5.655 12.632 12.632z"></path>
<path stroke-linejoin="round" stroke-linecap="round" stroke-miterlimit="4" stroke-width="2.5263" d="M30.316 30.316l-7.068-7.068"></path>
</symbol>
</defs>
</svg>
